<svg width="139" height="135" viewBox="0 0 139 135" fill="none" xmlns="http://www.w3.org/2000/svg">
<path d="M45.8523 127.36L46.7249 125.26L43.9056 124.089L44.459 122.757L47.2783 123.929L48.2008 121.709L45.0216 120.388L45.59 119.02L50.4488 121.04L46.9635 129.425L42.1047 127.406L42.6731 126.038L45.8523 127.36Z" fill="white"/>
<path d="M37.4318 114.218L37.3857 117.846L40.5537 116.28L42.2664 117.412L37.3608 119.652L37.3003 124.999L35.5551 123.846L35.594 120.228L32.444 121.791L30.7313 120.66L35.6189 118.423L35.6866 113.065L37.4318 114.218Z" fill="white"/>
<path d="M23.4132 110.16C23.7565 109.817 24.1609 109.579 24.6265 109.445C25.086 109.304 25.5821 109.317 26.1147 109.483C26.6413 109.643 27.1676 109.986 27.6938 110.514L28.7675 111.589L31.2321 109.13L32.5169 110.417L26.098 116.823L23.7395 114.46C23.2439 113.963 22.9076 113.454 22.7305 112.934C22.5534 112.413 22.5294 111.917 22.6585 111.445C22.7815 110.968 23.0331 110.539 23.4132 110.16ZM26.7097 111.606C26.3548 111.25 26.0121 111.066 25.6813 111.053C25.3445 111.047 25.029 111.191 24.7347 111.484C24.1094 112.108 24.1454 112.77 24.8429 113.469L25.8616 114.489L27.7284 112.626L26.7097 111.606Z" fill="white"/>
<path d="M23.0602 101.866L21.3452 99.4195L22.5261 98.5918L25.2851 102.528L17.8591 107.733L16.8152 106.244L23.0602 101.866Z" fill="white"/>
<path d="M18.9919 91.679C19.3391 92.4536 19.4762 93.2464 19.4031 94.0574C19.3301 94.8685 19.0585 95.6072 18.5883 96.2735C18.1103 96.9434 17.4642 97.4608 16.6502 97.8257C15.844 98.187 15.0358 98.3215 14.2255 98.2291C13.4074 98.1402 12.6713 97.8532 12.0172 97.3681C11.3632 96.883 10.8625 96.2531 10.5153 95.4786C10.1646 94.6961 10.0276 93.9033 10.1042 93.1002C10.1772 92.2891 10.4545 91.5526 10.9361 90.8906C11.4063 90.2243 12.0444 89.7104 12.8506 89.3491C13.6646 88.9842 14.4808 88.8462 15.2989 88.935C16.1056 89.0195 16.836 89.3044 17.49 89.7895C18.1441 90.2746 18.6447 90.9045 18.9919 91.679ZM17.51 92.3433C17.2868 91.8453 16.9795 91.4563 16.5882 91.1761C16.1889 90.8995 15.732 90.7484 15.2175 90.7227C14.703 90.6971 14.1691 90.8083 13.6158 91.0563C13.0626 91.3043 12.6283 91.6271 12.3129 92.0247C11.9897 92.4258 11.8025 92.8657 11.7512 93.3443C11.7 93.8228 11.7859 94.3111 12.0091 94.809C12.2323 95.3069 12.5414 95.6999 12.9363 95.988C13.3276 96.2682 13.7806 96.4211 14.2951 96.4467C14.8017 96.4759 15.3317 96.3665 15.8849 96.1185C16.4382 95.8705 16.8764 95.5459 17.1997 95.1448C17.5229 94.7436 17.7141 94.302 17.7732 93.8199C17.8209 93.3334 17.7332 92.8412 17.51 92.3433Z" fill="white"/>
<path d="M15.0021 79.3102L11.964 82.0048L12.143 82.8433L15.5989 82.1054L15.9787 83.8842L7.11027 85.7778L6.39951 82.4489C6.25302 81.7628 6.25105 81.1521 6.3936 80.6169C6.52769 80.0834 6.77693 79.6538 7.14134 79.328C7.49547 78.9956 7.92664 78.7751 8.43486 78.6666C9.01932 78.5418 9.58488 78.5982 10.1316 78.8357C10.6698 79.075 11.0993 79.5103 11.42 80.1415L14.5626 77.2519L15.0021 79.3102ZM10.8089 83.1282L10.4915 81.6416C10.3885 81.1588 10.1972 80.8232 9.91791 80.6349C9.6301 80.4484 9.27867 80.3994 8.86362 80.488C8.45705 80.5748 8.16896 80.7604 7.99937 81.0445C7.82131 81.3305 7.78383 81.7149 7.88691 82.1978L8.20431 83.6843L10.8089 83.1282Z" fill="white"/>
<path d="M6.52109 71.7371L8.79372 71.6715L8.70561 68.6197L10.1471 68.5781L10.2352 71.6299L12.6377 71.5605L12.5384 68.1191L14.0188 68.0764L14.1707 73.3359L5.09312 73.598L4.94127 68.3384L6.42173 68.2957L6.52109 71.7371Z" fill="white"/>
<path d="M14.7599 52.6663L13.8084 56.1505L15.3179 57.1822L14.8148 59.0246L6.9133 53.4864L7.47119 51.4435L17.0908 50.6901L16.5843 52.545L14.7599 52.6663ZM13.2262 52.7592L9.22087 53.0257L12.5348 55.2909L13.2262 52.7592Z" fill="white"/>
<path d="M22.2054 40.0757L21.3557 41.6839L13.9294 42.4182L19.4318 45.3253L18.5821 46.9335L10.5526 42.6912L11.4023 41.083L18.84 40.3548L13.3262 37.4416L14.1759 35.8334L22.2054 40.0757Z" fill="white"/>
<path d="M19.7829 28.1528C20.4007 27.4276 21.0844 26.912 21.8341 26.6063C22.5894 26.2939 23.3572 26.2141 24.1374 26.3667C24.9166 26.5071 25.6524 26.8721 26.3447 27.4619C27.037 28.0516 27.5144 28.7199 27.777 29.4669C28.0385 30.2017 28.0752 30.9668 27.8869 31.7621C27.7043 32.5509 27.304 33.3079 26.6862 34.0332L24.6307 36.4464L17.7273 30.566L19.7829 28.1528ZM25.4672 33.0801C26.085 32.3548 26.3646 31.6259 26.306 30.8933C26.2473 30.1607 25.8587 29.4883 25.14 28.8761C24.4213 28.264 23.6924 27.9844 22.9532 28.0374C22.2074 28.0848 21.5256 28.4711 20.9078 29.1964L20.0738 30.1755L24.6332 34.0592L25.4672 33.0801Z" fill="white"/>
<path d="M34.692 16.7503L35.9185 18.6646L38.4892 17.0176L39.2672 18.2319L36.6965 19.8789L37.9931 21.9027L40.892 20.0454L41.691 21.2924L37.2605 24.1309L32.3615 16.4844L36.7919 13.6459L37.5909 14.893L34.692 16.7503Z" fill="white"/>
<path d="M52.4551 16.4843L50.7631 17.1516L44.6487 12.8733L46.9318 18.6625L45.2398 19.3298L41.9081 10.8817L43.6001 10.2144L49.7192 14.5047L47.4314 8.70347L49.1234 8.03618L52.4551 16.4843Z" fill="white"/>
<path d="M61.1895 5.37201L61.4423 6.81816L59.0619 7.23425L60.3705 14.721L58.5788 15.0342L57.2702 7.54744L54.8898 7.96353L54.637 6.51737L61.1895 5.37201Z" fill="white"/>
<path d="M68.6685 6.41115L68.6589 8.68471L71.7119 8.6976L71.7058 10.1397L68.6528 10.1268L68.6426 12.5303L72.0855 12.5448L72.0792 14.0259L66.8175 14.0037L66.8559 4.92241L72.1175 4.94462L72.1113 6.42568L68.6685 6.41115Z" fill="white"/>
<path d="M80.7159 15.2143L79.4021 11.3718L78.5593 11.2135L77.9068 14.6865L76.1192 14.3507L77.7937 5.43829L81.139 6.0668C81.8285 6.19635 82.3927 6.43012 82.8315 6.76814C83.2719 7.09764 83.5721 7.49334 83.7321 7.95522C83.9022 8.41019 83.9393 8.89305 83.8433 9.40379C83.733 9.99114 83.4628 10.4912 83.0327 10.9039C82.6043 11.3081 82.037 11.5364 81.3309 11.5888L82.7844 15.6029L80.7159 15.2143ZM78.8112 9.87282L80.3051 10.1535C80.7903 10.2447 81.1737 10.1977 81.4552 10.0127C81.7384 9.81909 81.9191 9.51375 81.9975 9.09665C82.0742 8.68806 82.0142 8.35071 81.8175 8.08461C81.6223 7.81 81.2821 7.62711 80.7969 7.53596L79.303 7.25528L78.8112 9.87282Z" fill="white"/>
<path d="M101.41 13.5301L100.736 14.8343L98.5897 13.725L95.1006 20.4771L93.4848 19.6421L96.9738 12.89L94.827 11.7807L95.5009 10.4764L101.41 13.5301Z" fill="white"/>
<path d="M112.265 21.4108L106.566 28.4648L105.151 27.3217L107.576 24.3203L104.555 21.8791L102.13 24.8805L100.715 23.7375L106.414 16.6836L107.829 17.8266L105.485 20.727L108.507 23.1682L110.85 20.2678L112.265 21.4108Z" fill="white"/>
<path d="M116.776 28.2626L115.033 29.7223L116.993 32.0631L115.887 32.9889L113.927 30.6481L112.084 32.1911L114.295 34.8308L113.159 35.7816L109.781 31.7474L116.744 25.9172L120.122 29.9514L118.986 30.9023L116.776 28.2626Z" fill="white"/>
<path d="M130.541 49.6636L122.122 53.0318L121.446 51.3431L126.922 49.1522L120.544 49.0874L120.032 47.8088L124.601 43.3502L119.125 45.541L118.449 43.8523L126.869 40.484L127.636 42.402L122.447 47.5843L129.779 47.7577L130.541 49.6636Z" fill="white"/>
<path d="M130.931 58.0366L128.689 58.4107L129.191 61.4222L127.769 61.6595L127.266 58.648L124.896 59.0434L125.462 62.4394L124.001 62.6831L123.136 57.4931L132.093 55.9988L132.959 61.1888L131.498 61.4325L130.931 58.0366Z" fill="white"/>
<path d="M133.344 72.9997L131.876 72.9821L131.905 70.5658L124.305 70.4747L124.327 68.656L131.926 68.7471L131.955 66.3307L133.423 66.3483L133.344 72.9997Z" fill="white"/>
<path d="M124.411 82.7546L125.18 79.2257L123.619 78.2738L124.026 76.4078L132.205 81.5277L131.754 83.5968L122.186 84.8493L122.596 82.9706L124.411 82.7546ZM125.938 82.5821L129.924 82.1078L126.497 80.0179L125.938 82.5821Z" fill="white"/>
<path d="M125.725 99.8565L118.868 93.0541L119.788 91.0464L129.418 91.802L128.606 93.5735L121.011 92.8363L126.532 98.0968L125.725 99.8565Z" fill="white"/>
<path d="M120.711 104.925L118.86 103.604L117.087 106.09L115.913 105.252L117.687 102.767L115.73 101.371L113.73 104.173L112.525 103.313L115.581 99.0298L122.973 104.305L119.917 108.588L118.711 107.727L120.711 104.925Z" fill="white"/>
<path d="M106.568 109.678L110.464 110.824L111.079 110.227L108.621 107.689L109.927 106.424L116.237 112.937L113.792 115.305C113.288 115.793 112.771 116.119 112.242 116.282C111.719 116.452 111.222 116.468 110.753 116.332C110.283 116.208 109.868 115.96 109.506 115.586C109.09 115.157 108.838 114.648 108.749 114.058C108.667 113.475 108.808 112.88 109.173 112.274L105.056 111.142L106.568 109.678ZM112.029 111.207L110.937 112.265C110.582 112.608 110.399 112.948 110.388 113.285C110.382 113.628 110.527 113.952 110.823 114.257C111.112 114.555 111.422 114.701 111.753 114.694C112.09 114.693 112.435 114.521 112.79 114.178L113.882 113.12L112.029 111.207Z" fill="white"/>
<path d="M99.2909 115.209C99.8213 114.865 100.36 114.645 100.906 114.549C101.446 114.457 101.95 114.502 102.418 114.683C102.887 114.864 103.276 115.185 103.584 115.645L101.949 116.706C101.725 116.408 101.456 116.231 101.142 116.177C100.82 116.127 100.485 116.215 100.137 116.442C99.7805 116.672 99.555 116.937 99.4599 117.237C99.3695 117.543 99.4139 117.834 99.593 118.11C99.7391 118.336 99.9283 118.476 100.161 118.532C100.393 118.588 100.64 118.587 100.903 118.53C101.163 118.486 101.508 118.396 101.937 118.262C102.525 118.087 103.021 117.967 103.423 117.903C103.822 117.85 104.226 117.893 104.635 118.03C105.042 118.179 105.401 118.494 105.712 118.973C106.004 119.424 106.146 119.889 106.137 120.369C106.129 120.85 105.978 121.309 105.684 121.748C105.395 122.193 104.989 122.586 104.466 122.925C103.681 123.434 102.92 123.654 102.183 123.584C101.444 123.527 100.828 123.173 100.334 122.523L102.012 121.435C102.197 121.687 102.448 121.828 102.767 121.858C103.084 121.901 103.413 121.811 103.754 121.59C104.052 121.397 104.243 121.165 104.325 120.894C104.401 120.629 104.344 120.35 104.156 120.06C104.024 119.856 103.848 119.728 103.627 119.675C103.404 119.633 103.167 119.633 102.914 119.673C102.659 119.725 102.314 119.814 101.88 119.941C101.291 120.116 100.794 120.232 100.387 120.29C99.9804 120.347 99.5701 120.303 99.1563 120.159C98.7426 120.014 98.3825 119.706 98.0761 119.234C97.8122 118.827 97.6725 118.38 97.657 117.895C97.6415 117.409 97.7689 116.929 98.0391 116.455C98.3141 115.987 98.7314 115.572 99.2909 115.209Z" fill="white"/>
<path d="M93.997 126.752L93.1244 124.653L90.3051 125.825L89.7516 124.493L92.5709 123.321L91.6485 121.102L88.4693 122.423L87.9009 121.055L92.7597 119.036L96.245 127.422L91.3862 129.441L90.8178 128.074L93.997 126.752Z" fill="white"/>
</svg>
