<svg width="24" height="24" viewBox="0 0 24 24" fill="none" xmlns="http://www.w3.org/2000/svg">
<path d="M12.0004 5C11.7352 5 11.4809 5.10536 11.2933 5.29289C11.1058 5.48043 11.0004 5.73478 11.0004 6V10C11.0004 10.2652 11.1058 10.5196 11.2933 10.7071C11.4809 10.8946 11.7352 11 12.0004 11C12.2656 11 12.52 10.8946 12.7075 10.7071C12.8951 10.5196 13.0004 10.2652 13.0004 10V6C13.0004 5.73478 12.8951 5.48043 12.7075 5.29289C12.52 5.10536 12.2656 5 12.0004 5Z" fill="white"/>
<path fill-rule="evenodd" clip-rule="evenodd" d="M4.00043 8C4.00043 5.87827 4.84328 3.84344 6.34357 2.34315C7.84386 0.842855 9.8787 0 12.0004 0C14.1222 0 16.157 0.842855 17.6573 2.34315C19.1576 3.84344 20.0004 5.87827 20.0004 8V16C20.0004 18.1217 19.1576 20.1566 17.6573 21.6569C16.157 23.1571 14.1222 24 12.0004 24C9.8787 24 7.84386 23.1571 6.34357 21.6569C4.84328 20.1566 4.00043 18.1217 4.00043 16V8ZM18.0004 8V16C18.0004 17.5913 17.3683 19.1174 16.2431 20.2426C15.1179 21.3679 13.5917 22 12.0004 22C10.4091 22 8.88301 21.3679 7.75779 20.2426C6.63257 19.1174 6.00043 17.5913 6.00043 16V8C6.00043 6.4087 6.63257 4.88258 7.75779 3.75736C8.88301 2.63214 10.4091 2 12.0004 2C13.5917 2 15.1179 2.63214 16.2431 3.75736C17.3683 4.88258 18.0004 6.4087 18.0004 8Z" fill="white"/>
</svg>
